<svg xmlns="http://www.w3.org/2000/svg" viewBox="0 0 512 512">
  <defs>
    <linearGradient id="grad" x1="0%" y1="0%" x2="100%" y2="100%">
      <stop offset="0%" style="stop-color:#F59E0B"/>
      <stop offset="100%" style="stop-color:#D97706"/>
    </linearGradient>
  </defs>
  
  <!-- Background Circle -->
  <circle cx="256" cy="256" r="240" fill="url(#grad)"/>
  
  <!-- Horse Head - Minimalist -->
  <g fill="none" stroke="white" stroke-width="20" stroke-linecap="round" stroke-linejoin="round">
    <!-- Head outline -->
    <path d="M320 380 C360 400 380 350 380 300 C380 220 340 160 280 140 C220 120 160 140 140 200 C120 260 140 340 180 400 C200 440 260 480 320 480 C360 480 390 460 400 420"/>
    
    <!-- Ear 1 -->
    <path d="M220 140 L200 60 L250 120"/>
    
    <!-- Ear 2 -->
    <path d="M270 130 L280 50 L320 115"/>
    
    <!-- Eye -->
    <circle cx="260" cy="240" r="15" fill="white" stroke="none"/>
    
    <!-- Nostril -->
    <circle cx="360" cy="340" r="10" fill="white" stroke="none"/>
  </g>
</svg>
