<svg xmlns="http://www.w3.org/2000/svg" viewBox="0 0 1024 1024">
  <defs>
    <linearGradient id="grad" x1="0%" y1="0%" x2="100%" y2="100%">
      <stop offset="0%" style="stop-color:#F59E0B"/>
      <stop offset="100%" style="stop-color:#D97706"/>
    </linearGradient>
  </defs>
  
  <!-- Background -->
  <rect width="1024" height="1024" rx="180" fill="url(#grad)"/>
  
  <!-- Horse Head - Minimalist -->
  <g fill="none" stroke="white" stroke-width="40" stroke-linecap="round" stroke-linejoin="round">
    <!-- Head outline -->
    <path d="M640 760 C720 800 760 700 760 600 C760 440 680 320 560 280 C440 240 320 280 280 400 C240 520 280 680 360 800 C400 880 520 960 640 960 C720 960 780 920 800 840"/>
    
    <!-- Ear 1 -->
    <path d="M440 280 L400 120 L500 240"/>
    
    <!-- Ear 2 -->
    <path d="M540 260 L560 100 L640 230"/>
    
    <!-- Eye -->
    <circle cx="520" cy="480" r="30" fill="white" stroke="none"/>
    
    <!-- Nostril -->
    <circle cx="720" cy="680" r="20" fill="white" stroke="none"/>
  </g>
</svg>
