<svg xmlns="http://www.w3.org/2000/svg" viewBox="0 0 512 512">
  <defs>
    <linearGradient id="grad1" x1="0%" y1="0%" x2="100%" y2="100%">
      <stop offset="0%" style="stop-color:#1E3A8A;stop-opacity:1" />
      <stop offset="100%" style="stop-color:#3B82F6;stop-opacity:1" />
    </linearGradient>
  </defs>
  
  <!-- Background Circle -->
  <circle cx="256" cy="256" r="240" fill="url(#grad1)"/>
  
  <!-- Horse Silhouette -->
  <g fill="#FFFFFF">
    <!-- Head -->
    <path d="M340 100 C320 80 280 80 260 100 C240 120 240 160 250 180 C230 190 210 210 200 240 C190 270 190 310 200 340 C180 350 160 370 150 400 C145 420 145 450 155 470 C170 490 200 500 230 500 L280 500 C310 500 340 490 360 470 C380 450 390 420 390 390 C400 360 400 330 390 300 C410 270 420 230 410 190 C400 150 380 120 340 100Z"/>
    
    <!-- Eye -->
    <ellipse cx="280" cy="170" rx="12" ry="14"/>
    <circle cx="282" cy="170" r="6" fill="#1E3A8A"/>
    
    <!-- Ear -->
    <path d="M300 90 L310 50 L320 90Z"/>
    
    <!-- Mane -->
    <path d="M180 200 C170 180 160 160 170 140 C180 120 200 100 220 90 C200 100 180 120 175 150 C170 180 175 210 180 240 C165 230 150 220 140 200 C130 180 135 160 150 145 C140 160 140 185 150 205 C160 225 175 240 180 200Z" fill="#93C5FD"/>
    
    <!-- Nostril -->
    <circle cx="340" cy="280" r="6" fill="#3B82F6"/>
  </g>
  
  <!-- AI Sparkle/Crown -->
  <g fill="#FFD700">
    <polygon points="200,60 210,90 245,90 218,110 228,145 200,125 172,145 182,110 155,90 190,90"/>
  </g>
</svg>
